<svg id="Camada_1" data-name="Camada 1" xmlns="http://www.w3.org/2000/svg" viewBox="0 0 396.93 396.92"><defs><style>.cls-1{fill:#fe783b;}.cls-2{fill:#fff;}</style></defs><title>menu</title><path class="cls-1" d="M452.93,254.7c0-109.62-88.86-198.46-198.46-198.46S56,145.09,56,254.7s88.85,198.46,198.46,198.46S452.93,364.31,452.93,254.7Zm0,0" transform="translate(-56 -56.24)"/><path class="cls-2" d="M343,239.1H162.65a8,8,0,0,0-8,8v19.2a8,8,0,0,0,8,8H343a8,8,0,0,0,8-8V247.1a8,8,0,0,0-8-8Zm0,0" transform="translate(-56 -56.24)"/><path class="cls-2" d="M343,183.9H162.65a8,8,0,0,0-8,8v19.2a8,8,0,0,0,8,8H343a8,8,0,0,0,8-8V191.9a8,8,0,0,0-8-8Zm0,0" transform="translate(-56 -56.24)"/><path class="cls-2" d="M343,294.3H162.65a8,8,0,0,0-8,8v19.2a8,8,0,0,0,8,8H343a8,8,0,0,0,8-8V302.3a8,8,0,0,0-8-8Zm0,0" transform="translate(-56 -56.24)"/></svg>